<svg width="142" height="142" viewBox="0 0 142 142" fill="none" xmlns="http://www.w3.org/2000/svg">
<g filter="url(#filter0_d_301_12)">
<path d="M70.5369 0C52.4665 0 50.2006 0.0766603 43.1037 0.400337C36.0216 0.723419 31.1849 1.84836 26.9525 3.4929C22.5771 5.19329 18.8665 7.46853 15.1676 11.1674C11.4685 14.8663 9.19329 18.5773 7.49309 22.9527C5.84817 27.1849 4.72362 32.0216 4.40014 39.1037C4.07646 46.2006 4 48.4665 4 66.5369C4 84.607 4.07646 86.8729 4.40014 93.9698C4.72362 101.052 5.84817 105.889 7.49309 110.121C9.19349 114.496 11.4687 118.207 15.1676 121.906C18.8667 125.605 22.5771 127.88 26.9525 129.581C31.1849 131.225 36.0216 132.35 43.1037 132.673C50.2006 132.997 52.4665 133.074 70.5369 133.074C88.607 133.074 90.8729 132.997 97.9698 132.673C105.052 132.35 109.889 131.225 114.121 129.581C118.496 127.88 122.207 125.605 125.906 121.906C129.605 118.207 131.88 114.496 133.581 110.121C135.225 105.889 136.35 101.052 136.673 93.9698C136.997 86.8729 137.074 84.607 137.074 66.5369C137.074 48.4665 136.997 46.2006 136.673 39.1037C136.35 32.0216 135.225 27.1849 133.581 22.9527C131.88 18.5773 129.605 14.8663 125.906 11.1674C122.207 7.46853 118.496 5.19329 114.121 3.4929C109.889 1.84836 105.052 0.723419 97.9698 0.400337C90.8729 0.0766603 88.607 0 70.5369 0ZM70.5369 11.9885C88.3027 11.9885 90.4072 12.0565 97.4233 12.3766C103.911 12.6723 107.434 13.7563 109.778 14.6675C112.884 15.8746 115.101 17.3163 117.429 19.6446C119.757 21.973 121.199 24.1896 122.406 27.2952C123.317 29.6398 124.401 33.163 124.697 39.6502C125.017 46.6663 125.085 48.7708 125.085 66.5368C125.085 84.3027 125.017 86.4072 124.697 93.4233C124.401 99.9107 123.317 103.434 122.406 105.778C121.199 108.884 119.757 111.101 117.429 113.429C115.101 115.757 112.884 117.199 109.778 118.406C107.434 119.317 103.911 120.401 97.4233 120.697C90.4084 121.017 88.3041 121.085 70.5368 121.085C52.7694 121.085 50.6655 121.017 43.6502 120.697C37.1628 120.401 33.6398 119.317 31.2954 118.406C28.1894 117.199 25.973 115.757 23.6448 113.429C21.3165 111.101 19.8746 108.884 18.6675 105.778C17.7563 103.434 16.6725 99.9105 16.3766 93.4233C16.0565 86.4072 15.9885 84.3027 15.9885 66.5368C15.9885 48.7708 16.0565 46.6663 16.3766 39.6502C16.6725 33.1628 17.7563 29.6398 18.6675 27.2954C19.8746 24.1894 21.3165 21.973 23.6446 19.6448C25.973 17.3163 28.1896 15.8746 31.2952 14.6675C33.6398 13.7563 37.163 12.6723 43.6502 12.3766C50.6663 12.0565 52.7708 11.9885 70.5368 11.9885" fill="white"/>
<path d="M70.537 88.7157C58.2876 88.7157 48.3578 78.7859 48.3578 66.5369C48.3578 54.2875 58.2876 44.3577 70.537 44.3577C82.786 44.3577 92.7157 54.2875 92.7157 66.5369C92.7157 78.7859 82.786 88.7157 70.537 88.7157ZM70.537 32.3692C51.6664 32.3692 36.3693 47.6664 36.3693 66.5369C36.3693 85.407 51.6664 100.704 70.537 100.704C89.4071 100.704 104.704 85.407 104.704 66.5369C104.704 47.6664 89.4071 32.3692 70.537 32.3692V32.3692ZM114.039 31.0193C114.039 35.4291 110.464 39.0036 106.054 39.0036C101.645 39.0036 98.0699 35.4291 98.0699 31.0193C98.0699 26.6096 101.645 23.0347 106.054 23.0347C110.464 23.0347 114.039 26.6096 114.039 31.0193" fill="white"/>
</g>
<defs>
<filter id="filter0_d_301_12" x="0" y="0" width="141.073" height="141.074" filterUnits="userSpaceOnUse" color-interpolation-filters="sRGB">
<feFlood flood-opacity="0" result="BackgroundImageFix"/>
<feColorMatrix in="SourceAlpha" type="matrix" values="0 0 0 0 0 0 0 0 0 0 0 0 0 0 0 0 0 0 127 0" result="hardAlpha"/>
<feOffset dy="4"/>
<feGaussianBlur stdDeviation="2"/>
<feComposite in2="hardAlpha" operator="out"/>
<feColorMatrix type="matrix" values="0 0 0 0 0 0 0 0 0 0 0 0 0 0 0 0 0 0 0.25 0"/>
<feBlend mode="normal" in2="BackgroundImageFix" result="effect1_dropShadow_301_12"/>
<feBlend mode="normal" in="SourceGraphic" in2="effect1_dropShadow_301_12" result="shape"/>
</filter>
</defs>
</svg>
